<?xml version="1.0" encoding="utf-8"?><svg version="1.1" id="Layer_1" xmlns="http://www.w3.org/2000/svg" xmlns:xlink="http://www.w3.org/1999/xlink" x="0px" y="0px" width="94.051px" height="122.879px" viewBox="0 0 94.051 122.879" enable-background="new 0 0 94.051 122.879" xml:space="preserve"><g><path d="M1.926,110.623c-2.618,2.692-2.56,6.995,0.134,9.618c2.69,2.618,6.995,2.558,9.613-0.137L64.186,65.95l-4.875-4.737 l4.896,4.747c2.623-2.705,2.56-7.024-0.146-9.644c-0.081-0.076-0.159-0.148-0.24-0.22L11.674,2.774 C9.056,0.081,4.75,0.02,2.06,2.637c-2.693,2.623-2.752,6.925-0.134,9.618l47.896,48.978L1.926,110.623L1.926,110.623L1.926,110.623 z M81.401,6.325C81.401,2.832,84.233,0,87.726,0s6.325,2.832,6.325,6.325v110.229c0,3.493-2.832,6.325-6.325,6.325 s-6.325-2.832-6.325-6.325V6.325L81.401,6.325z"/></g></svg>