<svg width="389.7286865234375px" height="122.021240234375px" xmlns="http://www.w3.org/2000/svg" viewBox="55.135656738281256 13.9893798828125 389.7286865234375 122.021240234375" style="background: rgba(0, 0, 0, 0);" preserveAspectRatio="xMidYMid"><defs><filter id="editing-hole" x="-100%" y="-100%" width="300%" height="300%"><feFlood flood-color="#000" result="black"></feFlood><feMorphology operator="dilate" radius="2" in="SourceGraphic" result="erode"></feMorphology><feGaussianBlur in="erode" stdDeviation="4" result="blur"></feGaussianBlur><feOffset in="blur" dx="2" dy="2" result="offset"></feOffset><feComposite operator="atop" in="offset" in2="black" result="merge"></feComposite><feComposite operator="in" in="merge" in2="SourceGraphic" result="inner-shadow"></feComposite></filter></defs><g filter="url(#editing-hole)"><g transform="translate(114.18405210971832, 104.75218772888184)"><path d="M34.50-13.25L34.50-13.25L34.50-13.25Q36.16-12.03 36.16-9.44L36.16-9.44L36.16-9.44Q36.16-6.85 35.04-5.02L35.04-5.02L35.04-5.02Q33.92-3.20 31.74-1.79L31.74-1.79L31.74-1.79Q27.07 1.22 18.91 1.22L18.91 1.22L18.91 1.22Q10.75 1.22 6.30-3.04L6.30-3.04L6.30-3.04Q1.86-7.30 1.86-14.85L1.86-14.85L1.86-14.85Q1.86-25.54 7.42-33.66L7.42-33.66L7.42-33.66Q11.65-39.68 19.20-42.24L19.20-42.24L19.20-42.24Q23.10-43.52 26.94-43.52L26.94-43.52L26.94-43.52Q30.78-43.52 33.15-43.01L33.15-43.01L33.15-43.01Q35.52-42.50 37.31-41.47L37.31-41.47L37.31-41.47Q41.22-39.23 41.22-35.65L41.22-35.65L41.22-35.65Q41.22-32.38 38.14-29.95L38.14-29.95L38.14-29.95Q35.33-27.78 33.02-27.78L33.02-27.78L33.02-27.78Q30.72-27.78 29.76-28.10L29.76-28.10L29.76-28.10Q30.02-30.40 30.02-31.90L30.02-31.90L30.02-31.90Q30.02-33.41 29.95-34.50L29.95-34.50L29.95-34.50Q29.89-35.58 29.57-36.61L29.57-36.61L29.57-36.61Q28.93-38.98 26.98-38.98L26.98-38.98L26.98-38.98Q25.02-38.98 23.07-37.15L23.07-37.15L23.07-37.15Q21.12-35.33 19.46-32.26L19.46-32.26L19.46-32.26Q15.68-25.28 15.68-17.02L15.68-17.02L15.68-17.02Q15.68-13.06 17.92-10.78L17.92-10.78L17.92-10.78Q20.16-8.51 24.96-8.51L24.96-8.51L24.96-8.51Q28.54-8.51 31.94-10.88L31.94-10.88L31.94-10.88Q33.41-11.90 34.50-13.25ZM55.42 1.28L55.42 1.28L55.42 1.28Q41.34 1.28 41.34-11.97L41.34-11.97L41.34-11.97Q41.34-21.38 46.53-27.46L46.53-27.46L46.53-27.46Q52.03-33.92 61.57-33.92L61.57-33.92L61.57-33.92Q68.48-33.92 72-30.72L72-30.72L72-30.72Q75.52-27.52 75.52-20.80L75.52-20.80L75.52-20.80Q75.52-10.56 70.02-4.61L70.02-4.61L70.02-4.61Q64.64 1.28 55.42 1.28ZM57.09-26.56L57.09-26.56L57.09-26.56Q56.32-24.83 55.71-22.24L55.71-22.24L55.71-22.24Q55.10-19.65 54.34-15.55L54.34-15.55L54.34-15.55Q53.57-11.46 53.57-6.40L53.57-6.40L53.57-6.40Q53.57-4.74 54.11-3.65L54.11-3.65L54.11-3.65Q54.66-2.56 56.13-2.56L56.13-2.56L56.13-2.56Q57.60-2.56 58.53-3.26L58.53-3.26L58.53-3.26Q59.46-3.97 60.16-5.63L60.16-5.63L60.16-5.63Q61.44-8.58 62.46-14.05L62.46-14.05L62.46-14.05Q63.49-19.52 63.58-21.89L63.58-21.89L63.58-21.89Q63.68-24.26 63.68-26.02L63.68-26.02L63.68-26.02Q63.68-27.78 63.17-28.93L63.17-28.93L63.17-28.93Q62.66-30.08 61.22-30.08L61.22-30.08L61.22-30.08Q59.78-30.08 58.82-29.18L58.82-29.18L58.82-29.18Q57.86-28.29 57.09-26.56ZM125.38 1.28L125.38 1.28L125.38 1.28Q117.63 1.28 117.63-4.74L117.63-4.74L117.63-4.74Q117.63-7.36 118.75-12.45L118.75-12.45L118.75-12.45Q119.87-17.54 120.26-19.58L120.26-19.58L120.26-19.58Q121.15-24.26 121.15-25.73L121.15-25.73L121.15-25.73Q121.15-28.99 118.72-28.99L118.72-28.99L118.72-28.99Q117.12-28.99 115.58-26.78L115.58-26.78L115.58-26.78Q114.05-24.58 113.34-20.16L113.34-20.16L109.38 0L96.90 1.28L100.35-16.13L100.35-16.13Q100.93-19.01 101.44-22.27L101.44-22.27L101.44-22.27Q101.95-25.54 101.95-26.05L101.95-26.05L101.95-26.05Q101.95-28.99 99.78-28.99L99.78-28.99L99.78-28.99Q98.30-28.99 96.70-26.82L96.70-26.82L96.70-26.82Q95.10-24.64 94.21-20.16L94.21-20.16L90.30 0L77.70 1.28L84.42-32.64L94.85-33.92L93.76-27.46L93.76-27.46Q95.42-30.91 98.50-32.42L98.50-32.42L98.50-32.42Q101.57-33.92 106.37-33.92L106.37-33.92L106.37-33.92Q109.12-33.92 110.91-32.58L110.91-32.58L110.91-32.58Q112.70-31.23 113.28-29.06L113.28-29.06L113.28-29.06Q114.37-31.30 117.15-32.61L117.15-32.61L117.15-32.61Q119.94-33.92 123.36-33.92L123.36-33.92L123.36-33.92Q126.78-33.92 128.48-33.18L128.48-33.18L128.48-33.18Q130.18-32.45 131.20-31.23L131.20-31.23L131.20-31.23Q132.93-28.99 132.93-24.90L132.93-24.90L132.93-24.90Q132.93-20.86 131.20-12.48L131.20-12.48L131.20-12.48Q130.30-8.38 130.30-6.88L130.30-6.88L130.30-6.88Q130.30-5.38 131.17-4.48L131.17-4.48L131.17-4.48Q132.03-3.58 133.31-3.46L133.31-3.46L133.31-3.46Q132.67-1.28 130.46 0L130.46 0L130.46 0Q128.26 1.28 125.38 1.28ZM168.06-4.38L168.06-4.38L168.06-4.38Q165.38-1.66 161.70-0.19L161.70-0.19L161.70-0.19Q158.02 1.28 154.37 1.28L154.37 1.28L154.37 1.28Q150.72 1.28 149.44 0.64L149.44 0.64L147.46 11.52L134.46 12.80L143.30-32.64L153.73-33.73L152.90-29.31L152.90-29.31Q155.58-33.86 161.15-33.86L161.15-33.86L161.15-33.86Q167.42-33.86 170.75-29.82L170.75-29.82L170.75-29.82Q173.70-26.18 173.70-20.61L173.70-20.61L173.70-20.61Q173.70-15.04 172.22-11.07L172.22-11.07L172.22-11.07Q170.75-7.10 168.06-4.38ZM153.60-22.34L150.21-3.58L150.21-3.58Q151.55-2.43 153.22-2.43L153.22-2.43L153.22-2.43Q154.88-2.43 155.84-3.07L155.84-3.07L155.84-3.07Q156.80-3.71 157.50-4.99L157.50-4.99L157.50-4.99Q159.42-8.45 160.96-18.94L160.96-18.94L160.96-18.94Q161.41-22.02 161.41-25.02L161.41-25.02L161.41-25.02Q161.41-28.03 160.74-28.99L160.74-28.99L160.74-28.99Q160.06-29.95 158.78-29.95L158.78-29.95L158.78-29.95Q154.88-29.95 153.60-22.34L153.60-22.34ZM180.32-1.92L180.32-1.92L180.32-1.92Q178.82-3.58 178.14-6.21L178.14-6.21L178.14-6.21Q177.47-8.83 177.47-13.12L177.47-13.12L177.47-13.12Q177.47-17.41 178.94-21.31L178.94-21.31L178.94-21.31Q180.42-25.22 183.10-28.03L183.10-28.03L183.10-28.03Q188.61-33.92 197.70-33.92L197.70-33.92L197.70-33.92Q200.96-33.92 203.33-32.83L203.33-32.83L214.27-33.92L209.54-8.96L209.54-8.96Q209.34-8.19 209.34-6.78L209.34-6.78L209.34-6.78Q209.34-5.38 210.21-4.48L210.21-4.48L210.21-4.48Q211.07-3.58 212.35-3.46L212.35-3.46L212.35-3.46Q211.71-1.28 209.38 0L209.38 0L209.38 0Q207.04 1.28 204.42 1.28L204.42 1.28L204.42 1.28Q201.79 1.28 200.03 0.29L200.03 0.29L200.03 0.29Q198.27-0.70 197.76-2.37L197.76-2.37L197.76-2.37Q196.74-0.77 194.56 0.26L194.56 0.26L194.56 0.26Q192.38 1.28 189.47 1.28L189.47 1.28L189.47 1.28Q186.56 1.28 184.19 0.51L184.19 0.51L184.19 0.51Q181.82-0.26 180.32-1.92ZM193.82-27.90L193.82-27.90L193.82-27.90Q193.09-26.75 192.45-24.80L192.45-24.80L192.45-24.80Q191.81-22.85 190.75-17.63L190.75-17.63L190.75-17.63Q189.70-12.42 189.70-8.70L189.70-8.70L189.70-8.70Q189.70-4.99 190.27-3.90L190.27-3.90L190.27-3.90Q190.85-2.82 191.87-2.82L191.87-2.82L191.87-2.82Q193.92-2.82 195.42-4.77L195.42-4.77L195.42-4.77Q196.93-6.72 197.50-10.18L197.50-10.18L200.90-28.93L200.90-28.93Q199.55-30.08 197.98-30.08L197.98-30.08L197.98-30.08Q196.42-30.08 195.49-29.57L195.49-29.57L195.49-29.57Q194.56-29.06 193.82-27.90ZM233.09-3.52L233.09-3.52L233.09-3.52Q231.10 1.28 224.77 1.28L224.77 1.28L224.77 1.28Q221.50 1.28 219.46-0.96L219.46-0.96L219.46-0.96Q217.73-2.94 217.73-4.93L217.73-4.93L217.73-4.93Q217.73-10.11 220.10-20.22L220.10-20.22L222.46-32.64L235.46-33.92L231.55-13.70L231.55-13.70Q230.46-8.96 230.46-7.30L230.46-7.30L230.46-7.30Q230.46-3.65 233.09-3.52ZM223.62-41.54L223.62-41.54L223.62-41.54Q223.62-44.03 225.70-45.38L225.70-45.38L225.70-45.38Q227.78-46.72 230.78-46.72L230.78-46.72L230.78-46.72Q233.79-46.72 235.62-45.38L235.62-45.38L235.62-45.38Q237.44-44.03 237.44-41.54L237.44-41.54L237.44-41.54Q237.44-39.04 235.42-37.76L235.42-37.76L235.42-37.76Q233.41-36.48 230.40-36.48L230.40-36.48L230.40-36.48Q227.39-36.48 225.50-37.76L225.50-37.76L225.50-37.76Q223.62-39.04 223.62-41.54ZM258.56-17.98L258.56-17.98L258.56-17.98Q260.86-22.08 260.86-26.24L260.86-26.24L260.86-26.24Q260.86-28.99 258.88-28.99L258.88-28.99L258.88-28.99Q257.34-28.99 255.74-26.37L255.74-26.37L255.74-26.37Q254.08-23.74 253.57-20.35L253.57-20.35L250.24 0L236.99 1.28L243.52-32.64L254.08-33.92L252.93-27.46L252.93-27.46Q256.06-33.92 263.10-33.92L263.10-33.92L263.10-33.92Q266.82-33.92 268.83-32L268.83-32L268.83-32Q270.85-30.08 270.85-26.14L270.85-26.14L270.85-26.14Q270.85-22.21 268.26-19.71L268.26-19.71L268.26-19.71Q265.66-17.22 261.25-17.22L261.25-17.22L261.25-17.22Q259.33-17.22 258.56-17.98Z" fill="#ccc"></path></g></g><style>text {
  font-size: 64px;
  font-family: Arial Black;
  dominant-baseline: central;
  text-anchor: middle;
}</style></svg>